<svg xmlns="http://www.w3.org/2000/svg" viewBox="0 0 594 594" shape-rendering="crispEdges"><rect width="594" height="594" fill="#fff"/><rect x="0" y="0" width="18" height="18" fill="#111"/><rect x="18" y="0" width="18" height="18" fill="#111"/><rect x="36" y="0" width="18" height="18" fill="#111"/><rect x="54" y="0" width="18" height="18" fill="#111"/><rect x="72" y="0" width="18" height="18" fill="#111"/><rect x="90" y="0" width="18" height="18" fill="#111"/><rect x="108" y="0" width="18" height="18" fill="#111"/><rect x="288" y="0" width="18" height="18" fill="#111"/><rect x="378" y="0" width="18" height="18" fill="#111"/><rect x="396" y="0" width="18" height="18" fill="#111"/><rect x="468" y="0" width="18" height="18" fill="#111"/><rect x="486" y="0" width="18" height="18" fill="#111"/><rect x="504" y="0" width="18" height="18" fill="#111"/><rect x="522" y="0" width="18" height="18" fill="#111"/><rect x="540" y="0" width="18" height="18" fill="#111"/><rect x="558" y="0" width="18" height="18" fill="#111"/><rect x="576" y="0" width="18" height="18" fill="#111"/><rect x="0" y="18" width="18" height="18" fill="#111"/><rect x="108" y="18" width="18" height="18" fill="#111"/><rect x="162" y="18" width="18" height="18" fill="#111"/><rect x="270" y="18" width="18" height="18" fill="#111"/><rect x="414" y="18" width="18" height="18" fill="#111"/><rect x="432" y="18" width="18" height="18" fill="#111"/><rect x="468" y="18" width="18" height="18" fill="#111"/><rect x="576" y="18" width="18" height="18" fill="#111"/><rect x="0" y="36" width="18" height="18" fill="#111"/><rect x="36" y="36" width="18" height="18" fill="#111"/><rect x="54" y="36" width="18" height="18" fill="#111"/><rect x="72" y="36" width="18" height="18" fill="#111"/><rect x="108" y="36" width="18" height="18" fill="#111"/><rect x="144" y="36" width="18" height="18" fill="#111"/><rect x="162" y="36" width="18" height="18" fill="#111"/><rect x="288" y="36" width="18" height="18" fill="#111"/><rect x="306" y="36" width="18" height="18" fill="#111"/><rect x="324" y="36" width="18" height="18" fill="#111"/><rect x="342" y="36" width="18" height="18" fill="#111"/><rect x="360" y="36" width="18" height="18" fill="#111"/><rect x="378" y="36" width="18" height="18" fill="#111"/><rect x="468" y="36" width="18" height="18" fill="#111"/><rect x="504" y="36" width="18" height="18" fill="#111"/><rect x="522" y="36" width="18" height="18" fill="#111"/><rect x="540" y="36" width="18" height="18" fill="#111"/><rect x="576" y="36" width="18" height="18" fill="#111"/><rect x="0" y="54" width="18" height="18" fill="#111"/><rect x="36" y="54" width="18" height="18" fill="#111"/><rect x="54" y="54" width="18" height="18" fill="#111"/><rect x="72" y="54" width="18" height="18" fill="#111"/><rect x="108" y="54" width="18" height="18" fill="#111"/><rect x="144" y="54" width="18" height="18" fill="#111"/><rect x="162" y="54" width="18" height="18" fill="#111"/><rect x="180" y="54" width="18" height="18" fill="#111"/><rect x="198" y="54" width="18" height="18" fill="#111"/><rect x="216" y="54" width="18" height="18" fill="#111"/><rect x="234" y="54" width="18" height="18" fill="#111"/><rect x="252" y="54" width="18" height="18" fill="#111"/><rect x="432" y="54" width="18" height="18" fill="#111"/><rect x="468" y="54" width="18" height="18" fill="#111"/><rect x="504" y="54" width="18" height="18" fill="#111"/><rect x="522" y="54" width="18" height="18" fill="#111"/><rect x="540" y="54" width="18" height="18" fill="#111"/><rect x="576" y="54" width="18" height="18" fill="#111"/><rect x="0" y="72" width="18" height="18" fill="#111"/><rect x="36" y="72" width="18" height="18" fill="#111"/><rect x="54" y="72" width="18" height="18" fill="#111"/><rect x="72" y="72" width="18" height="18" fill="#111"/><rect x="108" y="72" width="18" height="18" fill="#111"/><rect x="144" y="72" width="18" height="18" fill="#111"/><rect x="162" y="72" width="18" height="18" fill="#111"/><rect x="180" y="72" width="18" height="18" fill="#111"/><rect x="270" y="72" width="18" height="18" fill="#111"/><rect x="288" y="72" width="18" height="18" fill="#111"/><rect x="306" y="72" width="18" height="18" fill="#111"/><rect x="360" y="72" width="18" height="18" fill="#111"/><rect x="378" y="72" width="18" height="18" fill="#111"/><rect x="432" y="72" width="18" height="18" fill="#111"/><rect x="468" y="72" width="18" height="18" fill="#111"/><rect x="504" y="72" width="18" height="18" fill="#111"/><rect x="522" y="72" width="18" height="18" fill="#111"/><rect x="540" y="72" width="18" height="18" fill="#111"/><rect x="576" y="72" width="18" height="18" fill="#111"/><rect x="0" y="90" width="18" height="18" fill="#111"/><rect x="108" y="90" width="18" height="18" fill="#111"/><rect x="144" y="90" width="18" height="18" fill="#111"/><rect x="216" y="90" width="18" height="18" fill="#111"/><rect x="234" y="90" width="18" height="18" fill="#111"/><rect x="252" y="90" width="18" height="18" fill="#111"/><rect x="342" y="90" width="18" height="18" fill="#111"/><rect x="360" y="90" width="18" height="18" fill="#111"/><rect x="378" y="90" width="18" height="18" fill="#111"/><rect x="468" y="90" width="18" height="18" fill="#111"/><rect x="576" y="90" width="18" height="18" fill="#111"/><rect x="0" y="108" width="18" height="18" fill="#111"/><rect x="18" y="108" width="18" height="18" fill="#111"/><rect x="36" y="108" width="18" height="18" fill="#111"/><rect x="54" y="108" width="18" height="18" fill="#111"/><rect x="72" y="108" width="18" height="18" fill="#111"/><rect x="90" y="108" width="18" height="18" fill="#111"/><rect x="108" y="108" width="18" height="18" fill="#111"/><rect x="144" y="108" width="18" height="18" fill="#111"/><rect x="180" y="108" width="18" height="18" fill="#111"/><rect x="216" y="108" width="18" height="18" fill="#111"/><rect x="252" y="108" width="18" height="18" fill="#111"/><rect x="288" y="108" width="18" height="18" fill="#111"/><rect x="324" y="108" width="18" height="18" fill="#111"/><rect x="360" y="108" width="18" height="18" fill="#111"/><rect x="396" y="108" width="18" height="18" fill="#111"/><rect x="432" y="108" width="18" height="18" fill="#111"/><rect x="468" y="108" width="18" height="18" fill="#111"/><rect x="486" y="108" width="18" height="18" fill="#111"/><rect x="504" y="108" width="18" height="18" fill="#111"/><rect x="522" y="108" width="18" height="18" fill="#111"/><rect x="540" y="108" width="18" height="18" fill="#111"/><rect x="558" y="108" width="18" height="18" fill="#111"/><rect x="576" y="108" width="18" height="18" fill="#111"/><rect x="306" y="126" width="18" height="18" fill="#111"/><rect x="324" y="126" width="18" height="18" fill="#111"/><rect x="342" y="126" width="18" height="18" fill="#111"/><rect x="54" y="144" width="18" height="18" fill="#111"/><rect x="72" y="144" width="18" height="18" fill="#111"/><rect x="90" y="144" width="18" height="18" fill="#111"/><rect x="108" y="144" width="18" height="18" fill="#111"/><rect x="126" y="144" width="18" height="18" fill="#111"/><rect x="144" y="144" width="18" height="18" fill="#111"/><rect x="162" y="144" width="18" height="18" fill="#111"/><rect x="288" y="144" width="18" height="18" fill="#111"/><rect x="450" y="144" width="18" height="18" fill="#111"/><rect x="468" y="144" width="18" height="18" fill="#111"/><rect x="486" y="144" width="18" height="18" fill="#111"/><rect x="54" y="162" width="18" height="18" fill="#111"/><rect x="72" y="162" width="18" height="18" fill="#111"/><rect x="90" y="162" width="18" height="18" fill="#111"/><rect x="126" y="162" width="18" height="18" fill="#111"/><rect x="144" y="162" width="18" height="18" fill="#111"/><rect x="162" y="162" width="18" height="18" fill="#111"/><rect x="306" y="162" width="18" height="18" fill="#111"/><rect x="324" y="162" width="18" height="18" fill="#111"/><rect x="414" y="162" width="18" height="18" fill="#111"/><rect x="432" y="162" width="18" height="18" fill="#111"/><rect x="450" y="162" width="18" height="18" fill="#111"/><rect x="468" y="162" width="18" height="18" fill="#111"/><rect x="486" y="162" width="18" height="18" fill="#111"/><rect x="504" y="162" width="18" height="18" fill="#111"/><rect x="522" y="162" width="18" height="18" fill="#111"/><rect x="540" y="162" width="18" height="18" fill="#111"/><rect x="558" y="162" width="18" height="18" fill="#111"/><rect x="36" y="180" width="18" height="18" fill="#111"/><rect x="54" y="180" width="18" height="18" fill="#111"/><rect x="72" y="180" width="18" height="18" fill="#111"/><rect x="90" y="180" width="18" height="18" fill="#111"/><rect x="108" y="180" width="18" height="18" fill="#111"/><rect x="126" y="180" width="18" height="18" fill="#111"/><rect x="144" y="180" width="18" height="18" fill="#111"/><rect x="162" y="180" width="18" height="18" fill="#111"/><rect x="234" y="180" width="18" height="18" fill="#111"/><rect x="324" y="180" width="18" height="18" fill="#111"/><rect x="450" y="180" width="18" height="18" fill="#111"/><rect x="486" y="180" width="18" height="18" fill="#111"/><rect x="504" y="180" width="18" height="18" fill="#111"/><rect x="252" y="198" width="18" height="18" fill="#111"/><rect x="270" y="198" width="18" height="18" fill="#111"/><rect x="288" y="198" width="18" height="18" fill="#111"/><rect x="306" y="198" width="18" height="18" fill="#111"/><rect x="324" y="198" width="18" height="18" fill="#111"/><rect x="342" y="198" width="18" height="18" fill="#111"/><rect x="360" y="198" width="18" height="18" fill="#111"/><rect x="378" y="198" width="18" height="18" fill="#111"/><rect x="450" y="198" width="18" height="18" fill="#111"/><rect x="468" y="198" width="18" height="18" fill="#111"/><rect x="486" y="198" width="18" height="18" fill="#111"/><rect x="504" y="198" width="18" height="18" fill="#111"/><rect x="36" y="216" width="18" height="18" fill="#111"/><rect x="54" y="216" width="18" height="18" fill="#111"/><rect x="72" y="216" width="18" height="18" fill="#111"/><rect x="90" y="216" width="18" height="18" fill="#111"/><rect x="108" y="216" width="18" height="18" fill="#111"/><rect x="126" y="216" width="18" height="18" fill="#111"/><rect x="144" y="216" width="18" height="18" fill="#111"/><rect x="162" y="216" width="18" height="18" fill="#111"/><rect x="234" y="216" width="18" height="18" fill="#111"/><rect x="252" y="216" width="18" height="18" fill="#111"/><rect x="270" y="216" width="18" height="18" fill="#111"/><rect x="288" y="216" width="18" height="18" fill="#111"/><rect x="306" y="216" width="18" height="18" fill="#111"/><rect x="324" y="216" width="18" height="18" fill="#111"/><rect x="432" y="216" width="18" height="18" fill="#111"/><rect x="450" y="216" width="18" height="18" fill="#111"/><rect x="468" y="216" width="18" height="18" fill="#111"/><rect x="486" y="216" width="18" height="18" fill="#111"/><rect x="504" y="216" width="18" height="18" fill="#111"/><rect x="558" y="216" width="18" height="18" fill="#111"/><rect x="72" y="234" width="18" height="18" fill="#111"/><rect x="90" y="234" width="18" height="18" fill="#111"/><rect x="162" y="234" width="18" height="18" fill="#111"/><rect x="180" y="234" width="18" height="18" fill="#111"/><rect x="198" y="234" width="18" height="18" fill="#111"/><rect x="216" y="234" width="18" height="18" fill="#111"/><rect x="234" y="234" width="18" height="18" fill="#111"/><rect x="252" y="234" width="18" height="18" fill="#111"/><rect x="270" y="234" width="18" height="18" fill="#111"/><rect x="378" y="234" width="18" height="18" fill="#111"/><rect x="396" y="234" width="18" height="18" fill="#111"/><rect x="414" y="234" width="18" height="18" fill="#111"/><rect x="432" y="234" width="18" height="18" fill="#111"/><rect x="450" y="234" width="18" height="18" fill="#111"/><rect x="468" y="234" width="18" height="18" fill="#111"/><rect x="540" y="234" width="18" height="18" fill="#111"/><rect x="558" y="234" width="18" height="18" fill="#111"/><rect x="36" y="252" width="18" height="18" fill="#111"/><rect x="54" y="252" width="18" height="18" fill="#111"/><rect x="72" y="252" width="18" height="18" fill="#111"/><rect x="90" y="252" width="18" height="18" fill="#111"/><rect x="108" y="252" width="18" height="18" fill="#111"/><rect x="306" y="252" width="18" height="18" fill="#111"/><rect x="324" y="252" width="18" height="18" fill="#111"/><rect x="342" y="252" width="18" height="18" fill="#111"/><rect x="360" y="252" width="18" height="18" fill="#111"/><rect x="378" y="252" width="18" height="18" fill="#111"/><rect x="396" y="252" width="18" height="18" fill="#111"/><rect x="414" y="252" width="18" height="18" fill="#111"/><rect x="432" y="252" width="18" height="18" fill="#111"/><rect x="450" y="252" width="18" height="18" fill="#111"/><rect x="468" y="252" width="18" height="18" fill="#111"/><rect x="558" y="252" width="18" height="18" fill="#111"/><rect x="576" y="252" width="18" height="18" fill="#111"/><rect x="0" y="270" width="18" height="18" fill="#111"/><rect x="18" y="270" width="18" height="18" fill="#111"/><rect x="36" y="270" width="18" height="18" fill="#111"/><rect x="126" y="270" width="18" height="18" fill="#111"/><rect x="144" y="270" width="18" height="18" fill="#111"/><rect x="162" y="270" width="18" height="18" fill="#111"/><rect x="180" y="270" width="18" height="18" fill="#111"/><rect x="198" y="270" width="18" height="18" fill="#111"/><rect x="216" y="270" width="18" height="18" fill="#111"/><rect x="234" y="270" width="18" height="18" fill="#111"/><rect x="378" y="270" width="18" height="18" fill="#111"/><rect x="396" y="270" width="18" height="18" fill="#111"/><rect x="414" y="270" width="18" height="18" fill="#111"/><rect x="432" y="270" width="18" height="18" fill="#111"/><rect x="450" y="270" width="18" height="18" fill="#111"/><rect x="0" y="288" width="18" height="18" fill="#111"/><rect x="18" y="288" width="18" height="18" fill="#111"/><rect x="36" y="288" width="18" height="18" fill="#111"/><rect x="108" y="288" width="18" height="18" fill="#111"/><rect x="126" y="288" width="18" height="18" fill="#111"/><rect x="144" y="288" width="18" height="18" fill="#111"/><rect x="162" y="288" width="18" height="18" fill="#111"/><rect x="180" y="288" width="18" height="18" fill="#111"/><rect x="414" y="288" width="18" height="18" fill="#111"/><rect x="432" y="288" width="18" height="18" fill="#111"/><rect x="450" y="288" width="18" height="18" fill="#111"/><rect x="468" y="288" width="18" height="18" fill="#111"/><rect x="486" y="288" width="18" height="18" fill="#111"/><rect x="504" y="288" width="18" height="18" fill="#111"/><rect x="522" y="288" width="18" height="18" fill="#111"/><rect x="540" y="288" width="18" height="18" fill="#111"/><rect x="558" y="288" width="18" height="18" fill="#111"/><rect x="576" y="288" width="18" height="18" fill="#111"/><rect x="0" y="306" width="18" height="18" fill="#111"/><rect x="18" y="306" width="18" height="18" fill="#111"/><rect x="36" y="306" width="18" height="18" fill="#111"/><rect x="54" y="306" width="18" height="18" fill="#111"/><rect x="72" y="306" width="18" height="18" fill="#111"/><rect x="270" y="306" width="18" height="18" fill="#111"/><rect x="288" y="306" width="18" height="18" fill="#111"/><rect x="306" y="306" width="18" height="18" fill="#111"/><rect x="324" y="306" width="18" height="18" fill="#111"/><rect x="342" y="306" width="18" height="18" fill="#111"/><rect x="414" y="306" width="18" height="18" fill="#111"/><rect x="432" y="306" width="18" height="18" fill="#111"/><rect x="558" y="306" width="18" height="18" fill="#111"/><rect x="576" y="306" width="18" height="18" fill="#111"/><rect x="0" y="324" width="18" height="18" fill="#111"/><rect x="18" y="324" width="18" height="18" fill="#111"/><rect x="36" y="324" width="18" height="18" fill="#111"/><rect x="54" y="324" width="18" height="18" fill="#111"/><rect x="72" y="324" width="18" height="18" fill="#111"/><rect x="90" y="324" width="18" height="18" fill="#111"/><rect x="108" y="324" width="18" height="18" fill="#111"/><rect x="126" y="324" width="18" height="18" fill="#111"/><rect x="144" y="324" width="18" height="18" fill="#111"/><rect x="162" y="324" width="18" height="18" fill="#111"/><rect x="180" y="324" width="18" height="18" fill="#111"/><rect x="198" y="324" width="18" height="18" fill="#111"/><rect x="270" y="324" width="18" height="18" fill="#111"/><rect x="288" y="324" width="18" height="18" fill="#111"/><rect x="468" y="324" width="18" height="18" fill="#111"/><rect x="522" y="324" width="18" height="18" fill="#111"/><rect x="0" y="342" width="18" height="18" fill="#111"/><rect x="18" y="342" width="18" height="18" fill="#111"/><rect x="36" y="342" width="18" height="18" fill="#111"/><rect x="54" y="342" width="18" height="18" fill="#111"/><rect x="342" y="342" width="18" height="18" fill="#111"/><rect x="360" y="342" width="18" height="18" fill="#111"/><rect x="378" y="342" width="18" height="18" fill="#111"/><rect x="396" y="342" width="18" height="18" fill="#111"/><rect x="414" y="342" width="18" height="18" fill="#111"/><rect x="486" y="342" width="18" height="18" fill="#111"/><rect x="504" y="342" width="18" height="18" fill="#111"/><rect x="522" y="342" width="18" height="18" fill="#111"/><rect x="540" y="342" width="18" height="18" fill="#111"/><rect x="558" y="342" width="18" height="18" fill="#111"/><rect x="576" y="342" width="18" height="18" fill="#111"/><rect x="72" y="360" width="18" height="18" fill="#111"/><rect x="90" y="360" width="18" height="18" fill="#111"/><rect x="108" y="360" width="18" height="18" fill="#111"/><rect x="126" y="360" width="18" height="18" fill="#111"/><rect x="144" y="360" width="18" height="18" fill="#111"/><rect x="162" y="360" width="18" height="18" fill="#111"/><rect x="180" y="360" width="18" height="18" fill="#111"/><rect x="198" y="360" width="18" height="18" fill="#111"/><rect x="216" y="360" width="18" height="18" fill="#111"/><rect x="306" y="360" width="18" height="18" fill="#111"/><rect x="324" y="360" width="18" height="18" fill="#111"/><rect x="342" y="360" width="18" height="18" fill="#111"/><rect x="360" y="360" width="18" height="18" fill="#111"/><rect x="378" y="360" width="18" height="18" fill="#111"/><rect x="396" y="360" width="18" height="18" fill="#111"/><rect x="414" y="360" width="18" height="18" fill="#111"/><rect x="54" y="378" width="18" height="18" fill="#111"/><rect x="72" y="378" width="18" height="18" fill="#111"/><rect x="216" y="378" width="18" height="18" fill="#111"/><rect x="234" y="378" width="18" height="18" fill="#111"/><rect x="252" y="378" width="18" height="18" fill="#111"/><rect x="270" y="378" width="18" height="18" fill="#111"/><rect x="288" y="378" width="18" height="18" fill="#111"/><rect x="306" y="378" width="18" height="18" fill="#111"/><rect x="324" y="378" width="18" height="18" fill="#111"/><rect x="342" y="378" width="18" height="18" fill="#111"/><rect x="360" y="378" width="18" height="18" fill="#111"/><rect x="378" y="378" width="18" height="18" fill="#111"/><rect x="396" y="378" width="18" height="18" fill="#111"/><rect x="414" y="378" width="18" height="18" fill="#111"/><rect x="432" y="378" width="18" height="18" fill="#111"/><rect x="450" y="378" width="18" height="18" fill="#111"/><rect x="468" y="378" width="18" height="18" fill="#111"/><rect x="486" y="378" width="18" height="18" fill="#111"/><rect x="108" y="396" width="18" height="18" fill="#111"/><rect x="216" y="396" width="18" height="18" fill="#111"/><rect x="234" y="396" width="18" height="18" fill="#111"/><rect x="252" y="396" width="18" height="18" fill="#111"/><rect x="270" y="396" width="18" height="18" fill="#111"/><rect x="288" y="396" width="18" height="18" fill="#111"/><rect x="306" y="396" width="18" height="18" fill="#111"/><rect x="126" y="414" width="18" height="18" fill="#111"/><rect x="306" y="414" width="18" height="18" fill="#111"/><rect x="324" y="414" width="18" height="18" fill="#111"/><rect x="342" y="414" width="18" height="18" fill="#111"/><rect x="360" y="414" width="18" height="18" fill="#111"/><rect x="378" y="414" width="18" height="18" fill="#111"/><rect x="486" y="414" width="18" height="18" fill="#111"/><rect x="504" y="414" width="18" height="18" fill="#111"/><rect x="558" y="414" width="18" height="18" fill="#111"/><rect x="576" y="414" width="18" height="18" fill="#111"/><rect x="108" y="432" width="18" height="18" fill="#111"/><rect x="126" y="432" width="18" height="18" fill="#111"/><rect x="144" y="432" width="18" height="18" fill="#111"/><rect x="198" y="432" width="18" height="18" fill="#111"/><rect x="216" y="432" width="18" height="18" fill="#111"/><rect x="234" y="432" width="18" height="18" fill="#111"/><rect x="378" y="432" width="18" height="18" fill="#111"/><rect x="396" y="432" width="18" height="18" fill="#111"/><rect x="414" y="432" width="18" height="18" fill="#111"/><rect x="432" y="432" width="18" height="18" fill="#111"/><rect x="450" y="432" width="18" height="18" fill="#111"/><rect x="468" y="432" width="18" height="18" fill="#111"/><rect x="486" y="432" width="18" height="18" fill="#111"/><rect x="504" y="432" width="18" height="18" fill="#111"/><rect x="144" y="450" width="18" height="18" fill="#111"/><rect x="324" y="450" width="18" height="18" fill="#111"/><rect x="342" y="450" width="18" height="18" fill="#111"/><rect x="360" y="450" width="18" height="18" fill="#111"/><rect x="378" y="450" width="18" height="18" fill="#111"/><rect x="432" y="450" width="18" height="18" fill="#111"/><rect x="504" y="450" width="18" height="18" fill="#111"/><rect x="522" y="450" width="18" height="18" fill="#111"/><rect x="540" y="450" width="18" height="18" fill="#111"/><rect x="558" y="450" width="18" height="18" fill="#111"/><rect x="0" y="468" width="18" height="18" fill="#111"/><rect x="18" y="468" width="18" height="18" fill="#111"/><rect x="36" y="468" width="18" height="18" fill="#111"/><rect x="54" y="468" width="18" height="18" fill="#111"/><rect x="72" y="468" width="18" height="18" fill="#111"/><rect x="90" y="468" width="18" height="18" fill="#111"/><rect x="108" y="468" width="18" height="18" fill="#111"/><rect x="180" y="468" width="18" height="18" fill="#111"/><rect x="198" y="468" width="18" height="18" fill="#111"/><rect x="216" y="468" width="18" height="18" fill="#111"/><rect x="234" y="468" width="18" height="18" fill="#111"/><rect x="252" y="468" width="18" height="18" fill="#111"/><rect x="270" y="468" width="18" height="18" fill="#111"/><rect x="414" y="468" width="18" height="18" fill="#111"/><rect x="432" y="468" width="18" height="18" fill="#111"/><rect x="468" y="468" width="18" height="18" fill="#111"/><rect x="504" y="468" width="18" height="18" fill="#111"/><rect x="558" y="468" width="18" height="18" fill="#111"/><rect x="576" y="468" width="18" height="18" fill="#111"/><rect x="0" y="486" width="18" height="18" fill="#111"/><rect x="108" y="486" width="18" height="18" fill="#111"/><rect x="252" y="486" width="18" height="18" fill="#111"/><rect x="270" y="486" width="18" height="18" fill="#111"/><rect x="288" y="486" width="18" height="18" fill="#111"/><rect x="342" y="486" width="18" height="18" fill="#111"/><rect x="360" y="486" width="18" height="18" fill="#111"/><rect x="378" y="486" width="18" height="18" fill="#111"/><rect x="396" y="486" width="18" height="18" fill="#111"/><rect x="414" y="486" width="18" height="18" fill="#111"/><rect x="432" y="486" width="18" height="18" fill="#111"/><rect x="504" y="486" width="18" height="18" fill="#111"/><rect x="522" y="486" width="18" height="18" fill="#111"/><rect x="0" y="504" width="18" height="18" fill="#111"/><rect x="36" y="504" width="18" height="18" fill="#111"/><rect x="54" y="504" width="18" height="18" fill="#111"/><rect x="72" y="504" width="18" height="18" fill="#111"/><rect x="108" y="504" width="18" height="18" fill="#111"/><rect x="144" y="504" width="18" height="18" fill="#111"/><rect x="162" y="504" width="18" height="18" fill="#111"/><rect x="180" y="504" width="18" height="18" fill="#111"/><rect x="198" y="504" width="18" height="18" fill="#111"/><rect x="306" y="504" width="18" height="18" fill="#111"/><rect x="324" y="504" width="18" height="18" fill="#111"/><rect x="342" y="504" width="18" height="18" fill="#111"/><rect x="360" y="504" width="18" height="18" fill="#111"/><rect x="378" y="504" width="18" height="18" fill="#111"/><rect x="396" y="504" width="18" height="18" fill="#111"/><rect x="432" y="504" width="18" height="18" fill="#111"/><rect x="450" y="504" width="18" height="18" fill="#111"/><rect x="468" y="504" width="18" height="18" fill="#111"/><rect x="486" y="504" width="18" height="18" fill="#111"/><rect x="504" y="504" width="18" height="18" fill="#111"/><rect x="0" y="522" width="18" height="18" fill="#111"/><rect x="36" y="522" width="18" height="18" fill="#111"/><rect x="54" y="522" width="18" height="18" fill="#111"/><rect x="72" y="522" width="18" height="18" fill="#111"/><rect x="108" y="522" width="18" height="18" fill="#111"/><rect x="144" y="522" width="18" height="18" fill="#111"/><rect x="198" y="522" width="18" height="18" fill="#111"/><rect x="252" y="522" width="18" height="18" fill="#111"/><rect x="270" y="522" width="18" height="18" fill="#111"/><rect x="288" y="522" width="18" height="18" fill="#111"/><rect x="306" y="522" width="18" height="18" fill="#111"/><rect x="324" y="522" width="18" height="18" fill="#111"/><rect x="342" y="522" width="18" height="18" fill="#111"/><rect x="360" y="522" width="18" height="18" fill="#111"/><rect x="414" y="522" width="18" height="18" fill="#111"/><rect x="432" y="522" width="18" height="18" fill="#111"/><rect x="0" y="540" width="18" height="18" fill="#111"/><rect x="36" y="540" width="18" height="18" fill="#111"/><rect x="54" y="540" width="18" height="18" fill="#111"/><rect x="72" y="540" width="18" height="18" fill="#111"/><rect x="108" y="540" width="18" height="18" fill="#111"/><rect x="144" y="540" width="18" height="18" fill="#111"/><rect x="162" y="540" width="18" height="18" fill="#111"/><rect x="180" y="540" width="18" height="18" fill="#111"/><rect x="198" y="540" width="18" height="18" fill="#111"/><rect x="324" y="540" width="18" height="18" fill="#111"/><rect x="342" y="540" width="18" height="18" fill="#111"/><rect x="576" y="540" width="18" height="18" fill="#111"/><rect x="0" y="558" width="18" height="18" fill="#111"/><rect x="108" y="558" width="18" height="18" fill="#111"/><rect x="144" y="558" width="18" height="18" fill="#111"/><rect x="162" y="558" width="18" height="18" fill="#111"/><rect x="180" y="558" width="18" height="18" fill="#111"/><rect x="198" y="558" width="18" height="18" fill="#111"/><rect x="216" y="558" width="18" height="18" fill="#111"/><rect x="288" y="558" width="18" height="18" fill="#111"/><rect x="306" y="558" width="18" height="18" fill="#111"/><rect x="324" y="558" width="18" height="18" fill="#111"/><rect x="342" y="558" width="18" height="18" fill="#111"/><rect x="378" y="558" width="18" height="18" fill="#111"/><rect x="396" y="558" width="18" height="18" fill="#111"/><rect x="468" y="558" width="18" height="18" fill="#111"/><rect x="486" y="558" width="18" height="18" fill="#111"/><rect x="540" y="558" width="18" height="18" fill="#111"/><rect x="0" y="576" width="18" height="18" fill="#111"/><rect x="18" y="576" width="18" height="18" fill="#111"/><rect x="36" y="576" width="18" height="18" fill="#111"/><rect x="54" y="576" width="18" height="18" fill="#111"/><rect x="72" y="576" width="18" height="18" fill="#111"/><rect x="90" y="576" width="18" height="18" fill="#111"/><rect x="108" y="576" width="18" height="18" fill="#111"/><rect x="144" y="576" width="18" height="18" fill="#111"/><rect x="162" y="576" width="18" height="18" fill="#111"/><rect x="180" y="576" width="18" height="18" fill="#111"/><rect x="198" y="576" width="18" height="18" fill="#111"/><rect x="216" y="576" width="18" height="18" fill="#111"/><rect x="234" y="576" width="18" height="18" fill="#111"/><rect x="252" y="576" width="18" height="18" fill="#111"/><rect x="270" y="576" width="18" height="18" fill="#111"/><rect x="342" y="576" width="18" height="18" fill="#111"/><rect x="360" y="576" width="18" height="18" fill="#111"/><rect x="378" y="576" width="18" height="18" fill="#111"/></svg>